<svg width="26" height="26" viewBox="0 0 26 26" fill="none" xmlns="http://www.w3.org/2000/svg">
<path fill-rule="evenodd" clip-rule="evenodd" d="M2.68707 2.68707C1 4.37413 1 7.0894 1 12.52V13.48C1 18.9106 1 21.6259 2.68707 23.313C4.37413 25 7.0894 25 12.52 25H13.48C18.9106 25 21.6259 25 23.313 23.313C25 21.6259 25 18.9106 25 13.48V12.52C25 7.0894 25 4.37413 23.313 2.68707C21.6259 1 18.9106 1 13.48 1H12.52C7.0894 1 4.37413 1 2.68707 2.68707ZM5.05006 8.30005C5.18006 14.54 8.30005 18.2901 13.7701 18.2901H14.0801V14.72C16.0901 14.92 17.61 16.3901 18.22 18.2901H21.06C20.28 15.4501 18.23 13.8801 16.95 13.2801C18.23 12.5401 20.0299 10.74 20.4599 8.30005H17.8799C17.3199 10.28 15.6601 12.08 14.0801 12.25V8.30005H11.5V15.22C9.9 14.82 7.88005 12.88 7.79005 8.30005H5.05006Z" stroke="#5A7A6F"/>
</svg>
